<?xml version="1.0" standalone="no"?>
<!DOCTYPE svg PUBLIC "-//W3C//DTD SVG 20010904//EN"
 "http://www.w3.org/TR/2001/REC-SVG-20010904/DTD/svg10.dtd">
<svg version="1.0" xmlns="http://www.w3.org/2000/svg"
 width="2029.000000pt" height="1015.000000pt" viewBox="0 0 2029.000000 1015.000000"
 preserveAspectRatio="xMidYMid meet">

<g transform="translate(0.000000,1015.000000) scale(0.100000,-0.100000)"
fill="#000000" stroke="none">
<path d="M2015 7825 c-329 -62 -577 -299 -662 -632 -17 -64 -18 -196 -18
-2108 0 -2214 -3 -2096 56 -2243 99 -250 309 -433 579 -504 l85 -23 2040 0
2040 0 85 23 c307 81 523 293 613 602 l22 75 3 2005 c2 1421 0 2030 -8 2090
-25 193 -98 338 -240 480 -122 122 -212 175 -386 227 -56 17 -174 18 -2099 20
-1662 1 -2053 -1 -2110 -12z m2105 -1799 c0 -6 -940 -1899 -945 -1905 -12 -11
-211 21 -297 49 -409 131 -684 537 -654 965 31 458 361 817 816 888 34 6 1080
8 1080 3z m920 -2 c0 -11 -965 -1894 -971 -1894 -3 0 -77 159 -166 353 l-161
352 155 305 c86 168 223 437 305 598 l150 292 344 0 c189 0 344 -3 344 -6z
m887 -76 c-24 -46 -243 -473 -487 -950 -243 -478 -445 -868 -449 -868 -7 0
-321 690 -321 707 0 7 136 278 302 603 l302 590 349 0 349 0 -45 -82z m-22
-892 c40 -26 59 -64 59 -117 0 -146 -189 -189 -257 -58 -63 119 85 249 198
175z"/>
<path d="M8120 5051 l0 -991 359 0 c496 0 569 12 681 117 45 41 71 77 100 137
84 171 104 323 104 786 0 275 -3 353 -17 434 -44 251 -118 372 -268 440 -125
57 -143 59 -566 64 l-393 3 0 -990z m695 671 c91 -42 126 -93 151 -220 34
-169 33 -745 0 -902 -31 -143 -82 -215 -171 -239 -22 -6 -102 -11 -177 -11
l-138 0 0 701 0 701 143 -4 c120 -3 150 -7 192 -26z"/>
<path d="M9670 5050 l0 -990 185 0 185 0 0 990 0 990 -185 0 -185 0 0 -990z"/>
<path d="M11080 6032 c0 -4 86 -448 190 -986 105 -539 190 -981 190 -983 0 -2
94 -3 208 -3 l208 0 103 495 c107 511 120 588 120 738 1 51 5 87 11 87 6 0 10
-24 10 -52 1 -123 34 -310 135 -753 58 -258 109 -480 112 -492 5 -23 6 -23
212 -23 l206 0 174 963 c96 529 177 974 179 990 l4 27 -189 0 -190 0 -87 -522
c-87 -527 -104 -657 -107 -803 -2 -121 -14 -147 -23 -50 -15 173 -52 367 -156
834 -60 267 -111 498 -115 514 l-7 27 -148 0 c-133 0 -149 -2 -154 -17 -3 -10
-53 -247 -111 -528 -96 -463 -118 -594 -141 -840 l-8 -80 -7 55 c-5 30 -15
123 -23 207 -12 116 -171 1007 -211 1181 -5 22 -7 22 -195 22 -105 0 -190 -3
-190 -8z"/>
<path d="M13360 5050 l0 -990 180 0 180 0 0 436 0 437 133 -6 c328 -14 366
-61 367 -452 0 -161 12 -334 26 -390 l6 -25 221 0 220 0 -20 23 c-61 67 -73
127 -83 422 -9 287 -17 344 -58 425 -32 63 -76 102 -156 134 l-57 24 34 6 c51
10 122 61 157 114 54 82 74 169 74 317 0 311 -106 452 -374 501 -55 10 -180
13 -462 14 l-388 0 0 -990z m750 680 c35 -19 51 -38 74 -83 26 -51 29 -68 30
-155 0 -112 -19 -184 -62 -225 -49 -47 -103 -59 -274 -65 l-158 -4 0 282 0
282 173 -4 c162 -3 175 -5 217 -28z"/>
<path d="M14966 5069 c-120 -534 -221 -979 -223 -990 -5 -18 3 -19 185 -19
l189 0 43 223 c23 122 44 232 47 245 5 22 5 22 218 22 l212 0 49 -245 48 -245
199 0 199 0 -6 33 c-4 17 -105 462 -224 987 l-218 955 -249 3 -250 2 -219
-971z m554 90 c33 -157 60 -291 60 -298 0 -8 -40 -11 -152 -9 -129 3 -153 5
-152 18 1 8 29 150 63 316 33 165 66 348 73 405 l12 104 18 -125 c10 -69 45
-254 78 -411z"/>
<path d="M16330 5051 l0 -991 185 0 185 0 0 420 0 420 188 0 c207 0 285 12
379 56 111 53 198 169 234 314 22 87 19 379 -5 455 -49 159 -129 241 -285 289
-60 18 -100 20 -473 24 l-408 3 0 -990z m670 693 c113 -34 156 -120 148 -300
-4 -84 -9 -112 -29 -151 -46 -89 -103 -112 -296 -120 l-133 -6 0 297 0 296
128 0 c88 0 145 -5 182 -16z"/>
<path d="M17770 5051 l0 -991 180 0 180 0 2 418 3 417 220 6 c195 5 228 8 288
29 228 78 328 272 314 605 -3 72 -12 154 -20 182 -46 161 -135 251 -300 301
-43 13 -126 16 -459 19 l-408 4 0 -990z m668 694 c113 -34 147 -97 147 -275 0
-108 -2 -119 -30 -175 -24 -49 -38 -64 -76 -83 -58 -29 -152 -44 -264 -40
l-90 3 -3 293 -2 292 133 0 c90 0 150 -5 185 -15z"/>
<path d="M10330 4805 l0 -155 315 0 316 0 -3 153 -3 152 -312 3 -313 2 0 -155z"/>
</g>
</svg>
