<svg id="Layer_1" data-name="Layer 1" xmlns="http://www.w3.org/2000/svg" viewBox="0 0 1238.03 440.84"><defs><style>.cls-1{fill:#21242d;}</style></defs><title>DistinGui Dark Logo Color</title><g id="_Group_" data-name="&lt;Group&gt;"><path id="_Compound_Path_" data-name="&lt;Compound Path&gt;" class="cls-1" d="M353.06,148.61h40.57q25.62,0,35.25,13.15t9.64,49.89q0,32.37-2.5,46t-8.5,22.15a26,26,0,0,1-12.5,9.65q-7.56,2.76-27.19,2.75H353.06Zm24.73,21V271.06H389q7.83,0,10.78-.88a12.06,12.06,0,0,0,5.06-2.94q4.41-4.49,6.25-14.92t1.85-33.58q0-31.43-4.53-40.29t-19.76-8.86Z"/><rect id="_Path_" data-name="&lt;Path&gt;" class="cls-1" x="459.03" y="148.61" width="25.26" height="143.63"/><path id="_Path_2" data-name="&lt;Path&gt;" class="cls-1" d="M582.87,192.53H558.93v-4.19q0-11.39-3.66-16.37t-11.83-5q-6.16,0-9.6,3.73t-3.43,10.54q0,9,15,19.59c.41.31.71.53.89.65l13.9,10q15,10.53,20.24,19.77t5.19,23.6q0,19.86-10.73,30.35t-31.25,10.49q-19.53,0-29.35-11.28t-9.81-33.76c0-.93,0-2,.08-3.26s.18-3.11.36-5.6h25.17v11.84q0,10.92,3.26,15.58c2.17,3.11,5.71,4.66,10.65,4.66q8,0,12.19-4.29t4.18-12.68a20.33,20.33,0,0,0-3-11.15q-3-4.62-12.55-11.8l-12.93-9.7q-16.73-12.3-21.26-20.23t-4.53-20.24q0-18.09,10.12-28.35t27.9-10.26Q563,145.16,573,156t10,31.25v.84C582.93,189.74,582.87,191.23,582.87,192.53Z"/><polygon id="_Path_3" data-name="&lt;Path&gt;" class="cls-1" points="596.33 148.61 679.68 148.61 679.68 172.3 650.64 172.3 650.64 292.23 625.38 292.23 625.38 172.3 596.33 172.3 596.33 148.61"/><rect id="_Path_4" data-name="&lt;Path&gt;" class="cls-1" x="692.97" y="148.61" width="25.26" height="143.63"/><path id="_Path_5" data-name="&lt;Path&gt;" class="cls-1" d="M741.29,148.61h26l29.22,73.86q1.93,5.24,4,12.32t4.05,15h.7q-1.23-8.12-2-15.44t-1.06-12.63V148.61h23.5V292.23H799.92l-30.11-76.94a107.15,107.15,0,0,1-3.65-11q-1.8-6.43-3.56-14.27h-.71q1.32,8.85,2.11,16.32t.89,12.49v73.4h-23.6Z"/><rect id="_Path_6" data-name="&lt;Path&gt;" class="cls-1" x="849.64" y="231.52" width="34.24" height="13.52"/><path id="_Path_7" data-name="&lt;Path&gt;" class="cls-1" d="M995.22,193.84H971.63v-2.42q0-12.13-4.66-18.61t-13.56-6.48q-10.83,0-14.88,8.67t-4,46.91q0,31.44,4,41.69t14.71,10.26q9.24,0,13.46-7.74t4.22-24.72v-4.56H953.41v-23h41.81v78.34H978.14l-1-15.29q-4.85,9.8-12,14.27t-18,4.47q-21.39,0-30-16.78t-8.63-62.68q0-40.93,9.82-55.91t34.37-15q21.91,0,32.21,11t10.3,34.47Z"/><path id="_Path_8" data-name="&lt;Path&gt;" class="cls-1" d="M1017.4,148.61h25.26v99.14q0,14.64,4,20.38t13.47,5.73q9.32,0,13.15-5.64t3.83-19.91c0-.19,0-.66.09-1.4s.09-1.37.09-1.87V148.61h24.91v99.14q0,14.82-1.54,21.31a32.61,32.61,0,0,1-5.15,11.52A33.42,33.42,0,0,1,1081,291.91q-9,3.78-21.3,3.77-23.14,0-32.74-10.58t-9.59-37.35Z"/><rect id="_Path_9" data-name="&lt;Path&gt;" class="cls-1" x="1125.04" y="148.61" width="25.26" height="143.63"/></g><g id="_Group_2" data-name="&lt;Group&gt;"><path id="_Compound_Path_2" data-name="&lt;Compound Path&gt;" class="cls-1" d="M259.33,80.54H126.83a39.21,39.21,0,0,0-39.1,39.09V321.21a39.21,39.21,0,0,0,39.1,39.09h132.5a39.2,39.2,0,0,0,39.09-39.09V119.63A39.2,39.2,0,0,0,259.33,80.54ZM233.1,177.17a8.65,8.65,0,1,1-8.65,8.65A8.65,8.65,0,0,1,233.1,177.17Zm-51.7,91.06c-12.92,14.28-30.83,15.34-44.45,8.54-15.46-7.72-23.79-24.33-21-42.42,2.24-14.37,10.61-24.44,24-29.62,13.2-5.11,25.81-3.21,37,5.89L134.4,160h56.08c.42,26.89.81,53.79,1.32,80.68A38.45,38.45,0,0,1,181.4,268.23Zm51.7,11.36a37.94,37.94,0,1,1,32-58.23l-39,25h44.6A37.93,37.93,0,0,1,233.1,279.59Z"/></g></svg>