<?xml version="1.0" standalone="no"?>
<!DOCTYPE svg PUBLIC "-//W3C//DTD SVG 20010904//EN"
 "http://www.w3.org/TR/2001/REC-SVG-20010904/DTD/svg10.dtd">
<svg version="1.0" xmlns="http://www.w3.org/2000/svg"
 width="3426.000000pt" height="1773.000000pt" viewBox="0 0 3426.000000 1773.000000"
 preserveAspectRatio="xMidYMid meet">

<g transform="translate(0.000000,1773.000000) scale(0.100000,-0.100000)"
fill="#000000" stroke="none">
<path d="M2906 15719 c-415 -37 -826 -210 -1157 -487 -342 -287 -600 -717
-687 -1147 -49 -240 -47 40 -47 -5255 0 -5295 -2 -5015 47 -5255 89 -441 360
-883 712 -1167 346 -279 730 -433 1166 -468 95 -8 1594 -10 5060 -8 4683 3
4930 4 5030 21 225 39 399 93 585 181 225 108 386 219 559 386 329 318 534
714 613 1185 17 106 18 300 18 5120 0 4783 -1 5015 -18 5124 -74 467 -282 870
-614 1192 -310 300 -690 488 -1143 566 -100 17 -344 18 -5065 19 -2791 1
-5003 -2 -5059 -7z m2094 -6889 l0 -2130 -885 0 -885 0 0 2130 0 2130 885 0
885 0 0 -2130z m2500 1313 l0 -816 -110 6 c-649 37 -1236 493 -1440 1118 -46
140 -80 334 -80 456 l0 53 815 0 815 0 0 -817z m2610 -1313 l0 -2130 -960 0
-960 0 0 2130 0 2130 960 0 960 0 0 -2130z m1690 2103 c295 -59 548 -258 685
-538 78 -157 99 -252 99 -440 0 -180 -21 -278 -89 -423 -300 -632 -1120 -776
-1616 -283 -123 122 -214 280 -261 452 -20 72 -23 108 -23 254 0 146 3 182 23
254 113 412 460 704 887 745 65 6 214 -4 295 -21z m-5797 -1598 c323 -84 485
-433 340 -735 -85 -176 -269 -290 -468 -290 -226 0 -429 146 -496 359 -29 91
-29 231 0 321 53 166 193 299 362 344 71 19 191 20 262 1z m5734 -646 c384
-52 721 -355 819 -736 138 -535 -179 -1079 -711 -1223 -121 -33 -330 -38 -455
-12 -379 78 -661 345 -772 728 -20 69 -23 101 -22 254 0 204 15 274 89 428 55
115 90 165 174 254 229 244 542 353 878 307z m-4237 -1174 l0 -815 -817 0
-816 0 6 104 c13 208 67 415 157 601 152 317 429 599 739 754 204 103 450 166
659 170 l72 1 0 -815z"/>
<path d="M32521 13585 c-171 -38 -322 -152 -414 -315 -76 -134 -93 -332 -43
-487 80 -248 297 -415 557 -430 302 -18 568 174 643 464 21 79 21 237 0 317
-83 321 -414 522 -743 451z m264 -80 c98 -25 184 -74 255 -145 219 -219 219
-556 0 -772 -219 -214 -549 -212 -766 6 -222 223 -213 571 22 785 129 118 324
168 489 126z"/>
<path d="M32460 12975 l0 -245 50 0 50 0 0 85 0 85 33 0 c29 0 36 -7 85 -85
l53 -85 60 0 c45 0 58 3 53 13 -4 6 -29 44 -56 84 -50 75 -57 93 -35 93 15 0
59 45 76 77 16 31 14 100 -5 139 -10 20 -34 45 -59 59 -39 23 -52 25 -173 25
l-132 0 0 -245z m255 130 c31 -30 32 -62 3 -92 -18 -20 -31 -23 -90 -23 l-68
0 0 63 c0 35 3 67 7 70 3 4 33 7 65 7 49 0 63 -4 83 -25z"/>
<path d="M17632 11143 l3 -1828 1243 -3 1242 -2 0 345 0 345 -875 0 -875 0 0
405 0 405 775 0 775 0 0 345 0 345 -775 0 -775 0 0 395 0 395 865 0 865 0 0
340 0 340 -1235 0 -1235 0 2 -1827z"/>
<path d="M30050 12360 l0 -340 -215 0 -215 0 0 -315 0 -315 213 -2 212 -3 5
-720 c5 -696 6 -723 27 -795 31 -111 59 -179 98 -245 158 -262 440 -388 830
-372 153 6 258 26 370 71 l80 32 3 327 2 326 -56 -25 c-103 -46 -217 -67 -332
-62 -92 4 -109 8 -169 39 -45 22 -78 48 -100 77 -63 83 -63 82 -63 749 l0 603
360 0 360 0 0 315 0 315 -360 0 -360 0 0 340 0 340 -345 0 -345 0 0 -340z"/>
<path d="M24595 12074 c-429 -63 -785 -277 -1004 -605 -243 -363 -303 -836
-161 -1260 139 -414 469 -734 909 -879 391 -129 867 -101 1238 75 170 80 369
225 463 337 42 48 42 50 24 67 -46 43 -420 368 -432 375 -8 5 -33 -14 -72 -53
-113 -113 -257 -193 -430 -239 -82 -22 -116 -25 -250 -25 -182 0 -263 17 -400
85 -69 34 -103 60 -181 138 -78 78 -102 110 -137 180 -23 47 -44 100 -48 118
l-6 32 1044 0 1045 0 7 38 c11 70 6 356 -9 452 -43 283 -165 533 -362 741
-196 206 -434 340 -708 399 -79 17 -142 22 -300 25 -110 2 -213 1 -230 -1z
m327 -608 c150 -29 268 -95 378 -213 75 -80 155 -223 167 -297 l6 -36 -687 0
c-465 0 -686 3 -686 10 0 6 13 46 30 88 51 134 129 239 233 318 161 122 360
168 559 130z"/>
<path d="M28035 12070 c-97 -15 -234 -58 -321 -100 -89 -43 -217 -134 -279
-199 -21 -22 -43 -41 -47 -41 -4 0 -8 65 -8 145 l0 145 -340 0 -340 0 0 -1355
0 -1355 339 0 340 0 4 798 c4 886 1 852 72 993 45 88 146 191 232 237 94 49
198 73 328 73 188 -1 313 -47 425 -159 69 -69 112 -140 146 -242 17 -51 19
-110 22 -877 l3 -823 344 0 345 0 0 923 c0 763 -3 938 -15 1012 -27 165 -68
275 -151 402 -128 197 -325 336 -569 399 -87 23 -125 27 -285 29 -102 2 -212
0 -245 -5z"/>
<path d="M20360 12015 c0 -3 250 -607 556 -1343 306 -735 558 -1343 561 -1349
4 -10 85 -13 359 -13 l354 0 16 33 c8 17 262 626 563 1352 l549 1320 -381 3
c-209 1 -384 -1 -388 -5 -4 -5 -161 -413 -349 -908 -188 -495 -344 -904 -347
-908 -3 -5 -164 402 -357 904 l-351 914 -393 3 c-215 1 -392 0 -392 -3z"/>
</g>
</svg>
