<?xml version="1.0" standalone="no"?>
<!DOCTYPE svg PUBLIC "-//W3C//DTD SVG 20010904//EN"
 "http://www.w3.org/TR/2001/REC-SVG-20010904/DTD/svg10.dtd">
<svg version="1.0" xmlns="http://www.w3.org/2000/svg"
 width="591.000000pt" height="624.000000pt" viewBox="0 0 591.000000 624.000000"
 preserveAspectRatio="xMidYMid meet">

<g transform="translate(0.000000,624.000000) scale(0.100000,-0.100000)"
fill="#000000" stroke="none">
<path d="M1321 4726 c4 -4 384 -293 845 -644 815 -618 844 -641 984 -786 l145
-148 -195 148 -195 147 -165 29 c-91 15 -171 27 -178 25 -8 -1 35 -30 95 -63
59 -34 272 -155 472 -269 l364 -207 56 26 c138 62 347 84 476 51 80 -21 199
-78 251 -120 23 -19 45 -35 48 -35 12 0 27 86 21 119 -24 127 -185 292 -400
409 -213 115 -2462 1241 -2468 1235 -4 -3 -7 -1 -7 6 0 7 -4 9 -10 6 -5 -3
-10 -1 -10 5 0 6 -4 8 -10 5 -5 -3 -10 -2 -10 4 0 6 -7 7 -17 4 -12 -5 -14 -3
-8 7 5 9 4 11 -3 6 -7 -4 -12 -2 -12 4 0 6 -4 8 -10 5 -5 -3 -10 -2 -10 3 0 5
-12 14 -27 21 -16 7 -25 10 -22 7z m2621 -1392 c154 -77 233 -135 278 -202 16
-25 30 -59 30 -75 l0 -29 -57 32 c-74 41 -80 47 -65 62 7 7 12 15 12 19 0 4
-74 60 -165 124 -91 64 -165 119 -165 121 0 9 44 -8 132 -52z"/>
<path d="M2651 4414 l194 -292 220 -118 c398 -216 402 -218 375 -191 -14 13
-221 201 -460 417 -239 216 -455 411 -479 434 -33 32 0 -25 150 -250z"/>
<path d="M2985 2877 c-215 -55 -342 -256 -307 -483 34 -218 194 -354 416 -354
103 0 231 56 278 123 l22 30 -34 29 -34 28 -41 -40 c-91 -89 -222 -109 -340
-51 -118 59 -178 161 -178 306 0 195 130 335 311 335 84 0 129 -16 181 -65
l46 -43 33 29 c17 16 32 33 32 38 0 17 -74 74 -126 98 -64 29 -186 39 -259 20z"/>
<path d="M3782 2879 c-122 -24 -222 -102 -279 -217 -38 -75 -38 -77 -38 -196
0 -115 2 -124 32 -188 73 -154 205 -237 378 -238 189 -1 335 103 395 281 19
54 21 80 18 165 -4 86 -9 110 -35 167 -41 86 -101 150 -177 187 -95 46 -192
59 -294 39z m244 -111 c60 -32 118 -92 147 -156 31 -70 31 -228 -1 -297 -53
-116 -163 -186 -293 -187 -92 -1 -158 24 -223 83 -66 60 -96 125 -103 224 -13
169 75 306 227 356 14 5 63 7 110 5 68 -2 95 -8 136 -28z"/>
<path d="M840 2465 l0 -405 45 0 45 0 2 188 3 187 188 3 187 2 0 40 0 40 -190
0 -190 0 0 130 0 130 200 0 200 0 0 45 0 45 -245 0 -245 0 0 -405z"/>
<path d="M1472 2472 c-95 -218 -172 -401 -172 -405 0 -4 21 -7 47 -5 l46 3 43
100 42 100 205 3 205 2 10 -27 c5 -16 24 -63 42 -105 l32 -78 50 0 c43 0 49 2
44 18 -4 9 -79 191 -169 404 l-162 388 -45 0 -45 0 -173 -398z m304 66 c41
-99 74 -182 74 -184 0 -2 -75 -4 -166 -4 -154 0 -166 1 -160 18 4 9 41 99 84
199 55 132 79 178 85 167 5 -8 42 -97 83 -196z"/>
<path d="M2170 2465 l0 -405 230 0 230 0 0 40 0 40 -185 0 -185 0 0 365 0 365
-45 0 -45 0 0 -405z"/>
<path d="M4440 2465 l0 -405 45 0 45 0 2 335 3 334 231 -332 231 -332 56 -3
57 -3 0 406 0 405 -45 0 -45 0 -2 -336 -3 -336 -234 336 -234 336 -53 0 -54 0
0 -405z"/>
<path d="M2953 1869 c-18 -5 -40 -21 -49 -34 -26 -40 -4 -77 64 -112 68 -34
87 -69 56 -104 -16 -18 -27 -20 -71 -16 -29 3 -55 2 -58 -3 -8 -13 73 -33 104
-25 51 13 71 33 71 73 0 49 -13 66 -80 99 -44 22 -56 34 -58 55 -4 36 27 52
84 44 27 -3 44 -2 44 5 0 19 -64 30 -107 18z"/>
<path d="M5004 1869 c-62 -18 -71 -90 -16 -124 89 -55 97 -62 100 -87 5 -44
-23 -61 -86 -54 -40 5 -53 3 -50 -6 13 -37 127 -31 158 9 40 52 18 100 -65
139 -97 46 -76 120 29 100 48 -9 55 11 9 23 -21 6 -40 11 -43 10 -3 0 -19 -5
-36 -10z"/>
<path d="M830 1725 l0 -145 80 0 c64 0 80 3 80 15 0 12 -14 15 -65 15 l-65 0
0 130 c0 109 -2 130 -15 130 -13 0 -15 -23 -15 -145z"/>
<path d="M1377 1859 c-51 -30 -71 -182 -30 -237 44 -59 116 -63 157 -9 28 38
35 151 12 199 -25 52 -92 74 -139 47z m92 -30 c35 -38 38 -153 5 -206 -17 -27
-65 -31 -88 -8 -37 37 -34 186 4 217 29 24 55 23 79 -3z"/>
<path d="M1930 1843 c-36 -34 -52 -100 -39 -170 15 -78 61 -109 143 -96 l36 6
0 73 0 74 -35 0 c-19 0 -35 -4 -35 -10 0 -5 9 -10 20 -10 18 0 20 -7 20 -55
l0 -55 -38 0 c-26 0 -45 7 -57 20 -23 26 -31 115 -15 164 14 42 59 71 97 62
13 -4 29 -4 35 0 17 11 -14 24 -59 24 -33 0 -50 -7 -73 -27z"/>
<path d="M2430 1860 c0 -5 7 -10 15 -10 13 0 15 -21 15 -125 0 -104 -2 -125
-15 -125 -8 0 -15 -4 -15 -10 0 -5 23 -10 50 -10 28 0 50 5 50 10 0 6 -7 10
-15 10 -13 0 -15 21 -15 125 0 104 2 125 15 125 8 0 15 5 15 10 0 6 -22 10
-50 10 -27 0 -50 -4 -50 -10z"/>
<path d="M3420 1855 c0 -11 11 -15 40 -15 l40 0 0 -130 c0 -123 1 -130 20
-130 19 0 20 7 20 130 l0 130 40 0 c29 0 40 4 40 15 0 12 -18 15 -100 15 -82
0 -100 -3 -100 -15z"/>
<path d="M3960 1860 c0 -5 7 -10 15 -10 13 0 15 -21 15 -125 0 -104 -2 -125
-15 -125 -8 0 -15 -4 -15 -10 0 -5 23 -10 50 -10 28 0 50 5 50 10 0 6 -7 10
-15 10 -13 0 -15 21 -15 125 0 104 2 125 15 125 8 0 15 5 15 10 0 6 -22 10
-50 10 -27 0 -50 -4 -50 -10z"/>
<path d="M4458 1841 c-33 -29 -33 -30 -33 -119 0 -76 3 -93 20 -112 27 -30 61
-42 101 -34 48 9 42 24 -9 24 -58 0 -77 22 -84 97 -9 102 35 164 104 147 19
-5 24 -3 21 7 -3 8 -22 15 -46 17 -33 3 -46 -2 -74 -27z"/>
</g>
</svg>
