<?xml version="1.0" standalone="no"?>
<!DOCTYPE svg PUBLIC "-//W3C//DTD SVG 20010904//EN"
 "http://www.w3.org/TR/2001/REC-SVG-20010904/DTD/svg10.dtd">
<svg version="1.0" xmlns="http://www.w3.org/2000/svg"
 width="1334.000000pt" height="513.000000pt" viewBox="0 0 1334.000000 513.000000"
 preserveAspectRatio="xMidYMid meet">

<g transform="translate(0.000000,513.000000) scale(0.100000,-0.100000)"
fill="#000000" stroke="none">
<path d="M2032 4377 l3 -271 855 -498 855 -498 7 -142 c3 -79 5 -145 3 -146
-2 -2 -387 220 -857 494 -469 273 -856 499 -860 501 -5 2 -8 -117 -8 -265 l0
-269 688 -400 687 -400 3 -194 2 -193 175 174 175 175 0 185 0 185 175 175
175 175 0 135 0 135 -1040 607 -1040 607 2 -272z"/>
<path d="M2030 1743 l0 -1258 230 230 230 230 0 896 0 897 -225 131 c-124 72
-227 131 -230 131 -3 0 -5 -566 -5 -1257z"/>
<path d="M6674 2940 c-104 -24 -158 -147 -101 -231 36 -54 82 -79 144 -79 62
0 100 17 136 60 73 86 24 221 -88 249 -48 12 -47 12 -91 1z"/>
<path d="M5170 2036 l0 -836 150 0 150 0 0 285 0 285 218 0 c185 0 231 3 296
20 104 26 169 63 242 135 74 73 120 162 139 271 18 99 18 139 0 237 -28 160
-120 290 -254 361 -122 64 -154 68 -568 73 l-373 5 0 -836z m706 559 c74 -22
129 -67 161 -133 24 -50 28 -69 28 -148 0 -81 -3 -97 -30 -150 -33 -63 -92
-113 -163 -135 -20 -6 -119 -14 -219 -16 l-183 -5 0 301 0 301 178 0 c128 0
192 -4 228 -15z"/>
<path d="M7110 2035 l0 -835 145 0 145 0 0 835 0 835 -145 0 -145 0 0 -835z"/>
<path d="M7640 2035 l0 -835 145 0 145 0 0 835 0 835 -145 0 -145 0 0 -835z"/>
<path d="M2720 2009 l0 -604 230 230 230 230 0 240 0 240 -197 115 c-109 63
-213 123 -230 133 l-33 19 0 -603z"/>
<path d="M8580 2461 c-131 -19 -233 -66 -311 -142 -44 -43 -109 -151 -109
-183 0 -10 24 -17 88 -26 48 -7 107 -15 132 -19 44 -6 45 -6 75 39 45 67 109
102 198 108 138 8 215 -38 237 -141 14 -69 2 -103 -44 -122 -19 -8 -108 -24
-198 -35 -244 -30 -331 -56 -425 -126 -36 -27 -78 -93 -94 -146 -18 -61 -13
-198 11 -261 56 -150 218 -235 425 -224 134 7 242 59 302 146 16 22 31 40 36
41 4 0 7 -38 7 -85 l0 -85 140 0 140 0 0 444 c0 258 -4 466 -10 497 -29 152
-139 259 -314 303 -73 19 -213 27 -286 17z m320 -749 c0 -112 -21 -174 -79
-232 -57 -57 -118 -80 -216 -80 -126 0 -205 62 -205 160 0 98 72 152 237 177
54 8 130 23 168 33 39 9 76 18 83 19 9 1 12 -21 12 -77z"/>
<path d="M9953 2451 c-93 -32 -157 -91 -196 -181 -15 -34 -15 -32 -16 73 l-1
107 -145 0 -145 0 0 -625 0 -626 148 3 147 3 5 410 c5 399 6 411 27 451 47 88
138 138 253 138 41 0 87 -3 103 -7 l27 -7 0 134 c0 130 -1 134 -22 140 -43 11
-133 5 -185 -13z"/>
<path d="M10660 2460 c-251 -35 -401 -188 -388 -394 6 -88 33 -151 88 -206 62
-62 145 -96 343 -140 204 -45 234 -56 270 -99 73 -87 -12 -199 -163 -217 -122
-14 -228 34 -270 121 l-23 48 -56 -6 c-31 -4 -94 -9 -140 -13 l-83 -7 6 -39
c8 -50 47 -127 86 -172 44 -50 119 -94 208 -124 67 -22 95 -25 217 -26 206 -1
326 36 430 135 72 68 107 139 113 232 7 122 -31 207 -123 272 -66 47 -131 70
-318 111 -88 19 -178 43 -201 53 -123 55 -124 170 -1 231 40 20 64 25 125 24
105 0 170 -36 211 -117 18 -35 22 -37 57 -32 49 7 204 25 214 25 17 0 6 50
-23 108 -54 108 -150 184 -272 216 -74 19 -225 27 -307 16z"/>
<path d="M6570 1825 l0 -625 145 0 145 0 0 625 0 625 -145 0 -145 0 0 -625z"/>
</g>
</svg>
