<svg xmlns="http://www.w3.org/2000/svg" xmlns:xlink="http://www.w3.org/1999/xlink" width="48" zoomAndPan="magnify" viewBox="0 0 36 36.000001" height="48" preserveAspectRatio="xMidYMid meet" version="1.0"><defs><clipPath id="9c31e3bab5"><path d="M 0.488281 0 L 35.511719 0 L 35.511719 35.027344 L 0.488281 35.027344 Z M 0.488281 0 " clip-rule="nonzero"/></clipPath><clipPath id="b805790311"><path d="M 18 0 C 8.328125 0 0.488281 7.839844 0.488281 17.511719 C 0.488281 27.1875 8.328125 35.027344 18 35.027344 C 27.671875 35.027344 35.511719 27.1875 35.511719 17.511719 C 35.511719 7.839844 27.671875 0 18 0 Z M 18 0 " clip-rule="nonzero"/></clipPath><clipPath id="7ab5d0f2f8"><path d="M 8.234375 9.003906 L 20 9.003906 L 20 22 L 8.234375 22 Z M 8.234375 9.003906 " clip-rule="nonzero"/></clipPath><clipPath id="d1f0c5220e"><path d="M 12 9.003906 L 27.9375 9.003906 L 27.9375 25.789062 L 12 25.789062 Z M 12 9.003906 " clip-rule="nonzero"/></clipPath></defs><g clip-path="url(#9c31e3bab5)"><g clip-path="url(#b805790311)"><path fill="#008cc1" d="M 0.488281 0 L 35.511719 0 L 35.511719 35.027344 L 0.488281 35.027344 Z M 0.488281 0 " fill-opacity="1" fill-rule="nonzero"/></g></g><g clip-path="url(#7ab5d0f2f8)"><path fill="#ffffff" d="M 13.34375 15.464844 L 19.800781 9.003906 L 16 9.003906 L 9.234375 15.773438 C 8.058594 16.949219 8.089844 18.429688 9.234375 19.574219 L 10.792969 21.132812 C 9.550781 18.507812 11.75 17.058594 13.34375 15.464844 Z M 13.34375 15.464844 " fill-opacity="1" fill-rule="nonzero"/></g><g clip-path="url(#d1f0c5220e)"><path fill="#ffffff" d="M 27.699219 26.015625 L 19.308594 17.628906 L 27.933594 9.003906 L 24.132812 9.003906 L 13.300781 19.835938 C 11.738281 21.398438 11.84375 22.183594 13.300781 23.640625 L 15.675781 26.015625 L 19.480469 26.015625 L 15.199219 21.738281 L 17.410156 19.53125 L 23.894531 26.015625 Z M 27.699219 26.015625 " fill-opacity="1" fill-rule="nonzero"/></g></svg>